<?xml version="1.0" encoding="UTF-8" standalone="no"?>
<!DOCTYPE svg PUBLIC "-//W3C//DTD SVG 1.1//EN"
 "http://www.w3.org/Graphics/SVG/1.1/DTD/svg11.dtd">
<!-- Generated by graphviz version 2.34.0 (20140110.0949)
 -->
<!-- Title: dotFileFactory Pages: 1 -->
<svg width="974pt" height="1552pt"
 viewBox="0.00 0.00 974.00 1552.00" xmlns="http://www.w3.org/2000/svg" xmlns:xlink="http://www.w3.org/1999/xlink">
<g id="graph0" class="graph" transform="scale(1 1) rotate(0) translate(4 1548)">
<title>dotFileFactory</title>
<polygon fill="white" stroke="white" points="-4,4 -4,-1548 970,-1548 970,4 -4,4"/>
<!-- &#45;843561775 -->
<g id="node1" class="node"><title>&#45;843561775</title>
<ellipse fill="none" stroke="black" cx="705" cy="-1506" rx="87.5215" ry="37.4533"/>
<text text-anchor="middle" x="705" y="-1517.3" font-family="Times,serif" font-size="14.00">serverSocket=None</text>
<text text-anchor="middle" x="705" y="-1502.3" font-family="Times,serif" font-size="14.00">clientSocket=None</text>
<text text-anchor="middle" x="705" y="-1487.3" font-family="Times,serif" font-size="14.00">phase=Send</text>
</g>
<!-- 221437574 -->
<g id="node2" class="node"><title>221437574</title>
<ellipse fill="none" stroke="black" cx="586" cy="-1378" rx="96.3112" ry="37.4533"/>
<text text-anchor="middle" x="586" y="-1389.3" font-family="Times,serif" font-size="14.00">serverSocket=Created</text>
<text text-anchor="middle" x="586" y="-1374.3" font-family="Times,serif" font-size="14.00">clientSocket=None</text>
<text text-anchor="middle" x="586" y="-1359.3" font-family="Times,serif" font-size="14.00">phase=Send</text>
</g>
<!-- &#45;843561775&#45;&gt;221437574 -->
<g id="edge1" class="edge"><title>&#45;843561775&#45;&gt;221437574</title>
<path fill="none" stroke="black" d="M672.797,-1470.9C658.232,-1455.48 640.882,-1437.11 625.535,-1420.86"/>
<polygon fill="black" stroke="black" points="628.054,-1418.43 618.643,-1413.56 622.964,-1423.24 628.054,-1418.43"/>
<text text-anchor="middle" x="689.5" y="-1438.3" font-family="Times,serif" font-size="14.00">ServerSocket</text>
</g>
<!-- &#45;1252286384 -->
<g id="node24" class="node"><title>&#45;1252286384</title>
<ellipse fill="none" stroke="black" cx="796" cy="-1378" rx="94.1301" ry="37.4533"/>
<text text-anchor="middle" x="796" y="-1389.3" font-family="Times,serif" font-size="14.00">serverSocket=None</text>
<text text-anchor="middle" x="796" y="-1374.3" font-family="Times,serif" font-size="14.00">clientSocket=Created</text>
<text text-anchor="middle" x="796" y="-1359.3" font-family="Times,serif" font-size="14.00">phase=Send</text>
</g>
<!-- &#45;843561775&#45;&gt;&#45;1252286384 -->
<g id="edge38" class="edge"><title>&#45;843561775&#45;&gt;&#45;1252286384</title>
<path fill="none" stroke="black" d="M730.349,-1469.9C740.909,-1455.28 753.285,-1438.14 764.428,-1422.72"/>
<polygon fill="black" stroke="black" points="767.454,-1424.5 770.472,-1414.35 761.779,-1420.4 767.454,-1424.5"/>
<text text-anchor="middle" x="791" y="-1438.3" font-family="Times,serif" font-size="14.00">ClientSocket</text>
</g>
<!-- 138622814 -->
<g id="node3" class="node"><title>138622814</title>
<ellipse fill="none" stroke="black" cx="586" cy="-1250" rx="92.4462" ry="37.4533"/>
<text text-anchor="middle" x="586" y="-1261.3" font-family="Times,serif" font-size="14.00">serverSocket=Bound</text>
<text text-anchor="middle" x="586" y="-1246.3" font-family="Times,serif" font-size="14.00">clientSocket=None</text>
<text text-anchor="middle" x="586" y="-1231.3" font-family="Times,serif" font-size="14.00">phase=Send</text>
</g>
<!-- 221437574&#45;&gt;138622814 -->
<g id="edge2" class="edge"><title>221437574&#45;&gt;138622814</title>
<path fill="none" stroke="black" d="M586,-1340.22C586,-1327.02 586,-1311.95 586,-1298.01"/>
<polygon fill="black" stroke="black" points="589.5,-1297.61 586,-1287.61 582.5,-1297.61 589.5,-1297.61"/>
<text text-anchor="middle" x="617" y="-1310.3" font-family="Times,serif" font-size="14.00">ServerBind</text>
</g>
<!-- 915528397 -->
<g id="node5" class="node"><title>915528397</title>
<ellipse fill="none" stroke="black" cx="403" cy="-994" rx="93.0077" ry="37.4533"/>
<text text-anchor="middle" x="403" y="-1005.3" font-family="Times,serif" font-size="14.00">serverSocket=Closed</text>
<text text-anchor="middle" x="403" y="-990.3" font-family="Times,serif" font-size="14.00">clientSocket=None</text>
<text text-anchor="middle" x="403" y="-975.3" font-family="Times,serif" font-size="14.00">phase=Send</text>
</g>
<!-- 221437574&#45;&gt;915528397 -->
<g id="edge34" class="edge"><title>221437574&#45;&gt;915528397</title>
<path fill="none" stroke="black" d="M523.265,-1349.35C465.508,-1320.06 383.442,-1267.8 347,-1194 322.129,-1143.63 348.602,-1080.47 372.934,-1038.98"/>
<polygon fill="black" stroke="black" points="376.056,-1040.58 378.234,-1030.21 370.066,-1036.96 376.056,-1040.58"/>
<text text-anchor="middle" x="380.5" y="-1182.3" font-family="Times,serif" font-size="14.00">ServerClose</text>
</g>
<!-- &#45;2141056950 -->
<g id="node23" class="node"><title>&#45;2141056950</title>
<ellipse fill="none" stroke="black" cx="796" cy="-1250" rx="96.3112" ry="37.4533"/>
<text text-anchor="middle" x="796" y="-1261.3" font-family="Times,serif" font-size="14.00">serverSocket=Created</text>
<text text-anchor="middle" x="796" y="-1246.3" font-family="Times,serif" font-size="14.00">clientSocket=Created</text>
<text text-anchor="middle" x="796" y="-1231.3" font-family="Times,serif" font-size="14.00">phase=Send</text>
</g>
<!-- 221437574&#45;&gt;&#45;2141056950 -->
<g id="edge35" class="edge"><title>221437574&#45;&gt;&#45;2141056950</title>
<path fill="none" stroke="black" d="M637.372,-1346.18C667.117,-1328.33 704.712,-1305.77 735.836,-1287.1"/>
<polygon fill="black" stroke="black" points="737.657,-1290.09 744.431,-1281.94 734.055,-1284.09 737.657,-1290.09"/>
<text text-anchor="middle" x="739" y="-1310.3" font-family="Times,serif" font-size="14.00">ClientSocket</text>
</g>
<!-- 137999127 -->
<g id="node4" class="node"><title>137999127</title>
<ellipse fill="none" stroke="black" cx="582" cy="-1122" rx="103.357" ry="37.4533"/>
<text text-anchor="middle" x="582" y="-1133.3" font-family="Times,serif" font-size="14.00">serverSocket=Listening</text>
<text text-anchor="middle" x="582" y="-1118.3" font-family="Times,serif" font-size="14.00">clientSocket=None</text>
<text text-anchor="middle" x="582" y="-1103.3" font-family="Times,serif" font-size="14.00">phase=Send</text>
</g>
<!-- 138622814&#45;&gt;137999127 -->
<g id="edge3" class="edge"><title>138622814&#45;&gt;137999127</title>
<path fill="none" stroke="black" d="M584.832,-1212.22C584.413,-1199.02 583.935,-1183.95 583.492,-1170.01"/>
<polygon fill="black" stroke="black" points="586.978,-1169.49 583.162,-1159.61 579.981,-1169.72 586.978,-1169.49"/>
<text text-anchor="middle" x="620" y="-1182.3" font-family="Times,serif" font-size="14.00">ServerListen</text>
</g>
<!-- 138622814&#45;&gt;915528397 -->
<g id="edge30" class="edge"><title>138622814&#45;&gt;915528397</title>
<path fill="none" stroke="black" d="M505.917,-1231.09C467.796,-1218.1 425.673,-1196.24 403,-1160 381.013,-1124.86 383.884,-1076.72 390.535,-1041.51"/>
<polygon fill="black" stroke="black" points="394.01,-1041.98 392.595,-1031.48 387.154,-1040.58 394.01,-1041.98"/>
<text text-anchor="middle" x="436.5" y="-1118.3" font-family="Times,serif" font-size="14.00">ServerClose</text>
</g>
<!-- &#45;148618235 -->
<g id="node22" class="node"><title>&#45;148618235</title>
<ellipse fill="none" stroke="black" cx="798" cy="-1122" rx="94.1301" ry="37.4533"/>
<text text-anchor="middle" x="798" y="-1133.3" font-family="Times,serif" font-size="14.00">serverSocket=Bound</text>
<text text-anchor="middle" x="798" y="-1118.3" font-family="Times,serif" font-size="14.00">clientSocket=Created</text>
<text text-anchor="middle" x="798" y="-1103.3" font-family="Times,serif" font-size="14.00">phase=Send</text>
</g>
<!-- 138622814&#45;&gt;&#45;148618235 -->
<g id="edge31" class="edge"><title>138622814&#45;&gt;&#45;148618235</title>
<path fill="none" stroke="black" d="M637.049,-1218.66C667.399,-1200.62 706.056,-1177.65 737.877,-1158.73"/>
<polygon fill="black" stroke="black" points="739.851,-1161.63 746.659,-1153.51 736.275,-1155.61 739.851,-1161.63"/>
<text text-anchor="middle" x="740" y="-1182.3" font-family="Times,serif" font-size="14.00">ClientSocket</text>
</g>
<!-- 137999127&#45;&gt;915528397 -->
<g id="edge4" class="edge"><title>137999127&#45;&gt;915528397</title>
<path fill="none" stroke="black" d="M535.437,-1088.22C511.333,-1071.26 481.783,-1050.46 456.716,-1032.81"/>
<polygon fill="black" stroke="black" points="458.593,-1029.85 448.402,-1026.96 454.564,-1035.58 458.593,-1029.85"/>
<text text-anchor="middle" x="537.5" y="-1054.3" font-family="Times,serif" font-size="14.00">ServerClose</text>
</g>
<!-- 1357255742 -->
<g id="node7" class="node"><title>1357255742</title>
<ellipse fill="none" stroke="black" cx="621" cy="-994" rx="103.357" ry="37.4533"/>
<text text-anchor="middle" x="621" y="-1005.3" font-family="Times,serif" font-size="14.00">serverSocket=Listening</text>
<text text-anchor="middle" x="621" y="-990.3" font-family="Times,serif" font-size="14.00">clientSocket=Created</text>
<text text-anchor="middle" x="621" y="-975.3" font-family="Times,serif" font-size="14.00">phase=Send</text>
</g>
<!-- 137999127&#45;&gt;1357255742 -->
<g id="edge6" class="edge"><title>137999127&#45;&gt;1357255742</title>
<path fill="none" stroke="black" d="M593.28,-1084.56C597.484,-1070.97 602.312,-1055.38 606.749,-1041.04"/>
<polygon fill="black" stroke="black" points="610.132,-1041.95 609.745,-1031.36 603.445,-1039.88 610.132,-1041.95"/>
<text text-anchor="middle" x="639" y="-1054.3" font-family="Times,serif" font-size="14.00">ClientSocket</text>
</g>
<!-- 600990470 -->
<g id="node6" class="node"><title>600990470</title>
<ellipse fill="none" stroke="black" cx="770" cy="-866" rx="94.1301" ry="37.4533"/>
<text text-anchor="middle" x="770" y="-877.3" font-family="Times,serif" font-size="14.00">serverSocket=Closed</text>
<text text-anchor="middle" x="770" y="-862.3" font-family="Times,serif" font-size="14.00">clientSocket=Created</text>
<text text-anchor="middle" x="770" y="-847.3" font-family="Times,serif" font-size="14.00">phase=Send</text>
</g>
<!-- 915528397&#45;&gt;600990470 -->
<g id="edge5" class="edge"><title>915528397&#45;&gt;600990470</title>
<path fill="none" stroke="black" d="M470.122,-967.956C482.929,-963.638 496.301,-959.44 509,-956 549.215,-945.107 563.421,-955.993 601,-938 610.957,-933.232 610.451,-927.54 620,-922 640.168,-910.3 663.264,-900.354 685.192,-892.271"/>
<polygon fill="black" stroke="black" points="686.609,-895.481 694.836,-888.805 684.241,-888.893 686.609,-895.481"/>
<text text-anchor="middle" x="655" y="-926.3" font-family="Times,serif" font-size="14.00">ClientSocket</text>
</g>
<!-- 1357255742&#45;&gt;600990470 -->
<g id="edge29" class="edge"><title>1357255742&#45;&gt;600990470</title>
<path fill="none" stroke="black" d="M666.366,-959.992C675.649,-952.913 685.251,-945.347 694,-938 705.235,-928.565 716.994,-917.967 727.812,-907.895"/>
<polygon fill="black" stroke="black" points="730.235,-910.421 735.134,-901.027 725.446,-905.316 730.235,-910.421"/>
<text text-anchor="middle" x="745.5" y="-926.3" font-family="Times,serif" font-size="14.00">ServerClose</text>
</g>
<!-- 218679901 -->
<g id="node8" class="node"><title>218679901</title>
<ellipse fill="none" stroke="black" cx="521" cy="-866" rx="108.342" ry="37.4533"/>
<text text-anchor="middle" x="521" y="-877.3" font-family="Times,serif" font-size="14.00">serverSocket=Listening</text>
<text text-anchor="middle" x="521" y="-862.3" font-family="Times,serif" font-size="14.00">clientSocket=Connecting</text>
<text text-anchor="middle" x="521" y="-847.3" font-family="Times,serif" font-size="14.00">phase=Send</text>
</g>
<!-- 1357255742&#45;&gt;218679901 -->
<g id="edge7" class="edge"><title>1357255742&#45;&gt;218679901</title>
<path fill="none" stroke="black" d="M550.844,-966.472C539.363,-959.007 528.962,-949.644 522,-938 517.682,-930.779 515.596,-922.362 514.858,-913.899"/>
<polygon fill="black" stroke="black" points="518.349,-913.529 514.566,-903.632 511.351,-913.727 518.349,-913.529"/>
<text text-anchor="middle" x="561.5" y="-926.3" font-family="Times,serif" font-size="14.00">ClientConnect</text>
</g>
<!-- 1837051979 -->
<g id="node9" class="node"><title>1837051979</title>
<ellipse fill="none" stroke="black" cx="346" cy="-738" rx="107.22" ry="37.4533"/>
<text text-anchor="middle" x="346" y="-749.3" font-family="Times,serif" font-size="14.00">serverSocket=Connected</text>
<text text-anchor="middle" x="346" y="-734.3" font-family="Times,serif" font-size="14.00">clientSocket=Connected</text>
<text text-anchor="middle" x="346" y="-719.3" font-family="Times,serif" font-size="14.00">phase=Send</text>
</g>
<!-- 218679901&#45;&gt;1837051979 -->
<g id="edge8" class="edge"><title>218679901&#45;&gt;1837051979</title>
<path fill="none" stroke="black" d="M475.021,-831.895C452.102,-815.393 424.236,-795.33 400.274,-778.077"/>
<polygon fill="black" stroke="black" points="402.136,-775.105 391.976,-772.102 398.046,-780.786 402.136,-775.105"/>
<text text-anchor="middle" x="481" y="-798.3" font-family="Times,serif" font-size="14.00">ServerAccept</text>
</g>
<!-- 938309959 -->
<g id="node21" class="node"><title>938309959</title>
<ellipse fill="none" stroke="black" cx="580" cy="-738" rx="108.342" ry="37.4533"/>
<text text-anchor="middle" x="580" y="-749.3" font-family="Times,serif" font-size="14.00">serverSocket=Closed</text>
<text text-anchor="middle" x="580" y="-734.3" font-family="Times,serif" font-size="14.00">clientSocket=Connecting</text>
<text text-anchor="middle" x="580" y="-719.3" font-family="Times,serif" font-size="14.00">phase=Send</text>
</g>
<!-- 218679901&#45;&gt;938309959 -->
<g id="edge28" class="edge"><title>218679901&#45;&gt;938309959</title>
<path fill="none" stroke="black" d="M537.907,-828.893C544.387,-815.054 551.866,-799.083 558.705,-784.477"/>
<polygon fill="black" stroke="black" points="562.02,-785.652 563.09,-775.112 555.68,-782.684 562.02,-785.652"/>
<text text-anchor="middle" x="588.5" y="-798.3" font-family="Times,serif" font-size="14.00">ServerClose</text>
</g>
<!-- &#45;1271977344 -->
<g id="node10" class="node"><title>&#45;1271977344</title>
<ellipse fill="none" stroke="black" cx="107" cy="-610" rx="107.22" ry="37.4533"/>
<text text-anchor="middle" x="107" y="-621.3" font-family="Times,serif" font-size="14.00">serverSocket=Connected</text>
<text text-anchor="middle" x="107" y="-606.3" font-family="Times,serif" font-size="14.00">clientSocket=Connected</text>
<text text-anchor="middle" x="107" y="-591.3" font-family="Times,serif" font-size="14.00">phase=ServerReceive</text>
</g>
<!-- 1837051979&#45;&gt;&#45;1271977344 -->
<g id="edge9" class="edge"><title>1837051979&#45;&gt;&#45;1271977344</title>
<path fill="none" stroke="black" d="M244.724,-725.642C188.969,-717.122 127.584,-703.217 110,-682 104.398,-675.241 101.679,-666.754 100.672,-658.021"/>
<polygon fill="black" stroke="black" points="104.156,-657.578 100.207,-647.747 97.1628,-657.895 104.156,-657.578"/>
<text text-anchor="middle" x="140.5" y="-670.3" font-family="Times,serif" font-size="14.00">ClientSend</text>
</g>
<!-- &#45;1133540645 -->
<g id="node13" class="node"><title>&#45;1133540645</title>
<ellipse fill="none" stroke="black" cx="716" cy="-516" rx="107.22" ry="37.4533"/>
<text text-anchor="middle" x="716" y="-527.3" font-family="Times,serif" font-size="14.00">serverSocket=Connected</text>
<text text-anchor="middle" x="716" y="-512.3" font-family="Times,serif" font-size="14.00">clientSocket=Closed</text>
<text text-anchor="middle" x="716" y="-497.3" font-family="Times,serif" font-size="14.00">phase=Send</text>
</g>
<!-- 1837051979&#45;&gt;&#45;1133540645 -->
<g id="edge13" class="edge"><title>1837051979&#45;&gt;&#45;1133540645</title>
<path fill="none" stroke="black" d="M422.612,-711.753C444.579,-703.397 468.2,-693.305 489,-682 555.089,-646.079 624.027,-593.472 668.339,-557.37"/>
<polygon fill="black" stroke="black" points="670.805,-559.875 676.32,-550.829 666.367,-554.461 670.805,-559.875"/>
<text text-anchor="middle" x="545" y="-670.3" font-family="Times,serif" font-size="14.00">ClientClose</text>
</g>
<!-- &#45;2016058616 -->
<g id="node16" class="node"><title>&#45;2016058616</title>
<ellipse fill="none" stroke="black" cx="340" cy="-610" rx="107.22" ry="37.4533"/>
<text text-anchor="middle" x="340" y="-621.3" font-family="Times,serif" font-size="14.00">serverSocket=Connected</text>
<text text-anchor="middle" x="340" y="-606.3" font-family="Times,serif" font-size="14.00">clientSocket=Connected</text>
<text text-anchor="middle" x="340" y="-591.3" font-family="Times,serif" font-size="14.00">phase=ClientReceive</text>
</g>
<!-- 1837051979&#45;&gt;&#45;2016058616 -->
<g id="edge16" class="edge"><title>1837051979&#45;&gt;&#45;2016058616</title>
<path fill="none" stroke="black" d="M369.853,-701.356C374.653,-690.194 377.332,-677.726 374,-666 373.035,-662.604 371.794,-659.211 370.359,-655.874"/>
<polygon fill="black" stroke="black" points="373.395,-654.114 365.871,-646.654 367.101,-657.177 373.395,-654.114"/>
<text text-anchor="middle" x="407.5" y="-670.3" font-family="Times,serif" font-size="14.00">ServerSend</text>
</g>
<!-- &#45;1302709924 -->
<g id="node18" class="node"><title>&#45;1302709924</title>
<ellipse fill="none" stroke="black" cx="482" cy="-294" rx="118.192" ry="37.4533"/>
<text text-anchor="middle" x="482" y="-305.3" font-family="Times,serif" font-size="14.00">serverSocket=Disconnected</text>
<text text-anchor="middle" x="482" y="-290.3" font-family="Times,serif" font-size="14.00">clientSocket=Connected</text>
<text text-anchor="middle" x="482" y="-275.3" font-family="Times,serif" font-size="14.00">phase=Send</text>
</g>
<!-- 1837051979&#45;&gt;&#45;1302709924 -->
<g id="edge27" class="edge"><title>1837051979&#45;&gt;&#45;1302709924</title>
<path fill="none" stroke="black" d="M411.469,-708.205C423.071,-700.919 434.229,-692.203 443,-682 453.547,-669.732 452.48,-663.79 456,-648 462.488,-618.901 474.081,-431.061 479.31,-341.876"/>
<polygon fill="black" stroke="black" points="482.812,-341.95 479.901,-331.763 475.824,-341.542 482.812,-341.95"/>
<text text-anchor="middle" x="535.5" y="-512.3" font-family="Times,serif" font-size="14.00">ServerCloseConnection</text>
</g>
<!-- &#45;1271977344&#45;&gt;1837051979 -->
<g id="edge10" class="edge"><title>&#45;1271977344&#45;&gt;1837051979</title>
<path fill="none" stroke="black" d="M149.81,-644.426C167.267,-657.157 188.018,-671.188 208,-682 224.998,-691.198 243.87,-699.724 262.061,-707.183"/>
<polygon fill="black" stroke="black" points="260.915,-710.494 271.499,-710.984 263.531,-704.001 260.915,-710.494"/>
<text text-anchor="middle" x="247.5" y="-670.3" font-family="Times,serif" font-size="14.00">ServerReceive</text>
</g>
<!-- 1359030673 -->
<g id="node11" class="node"><title>1359030673</title>
<ellipse fill="none" stroke="black" cx="131" cy="-166" rx="118.192" ry="37.4533"/>
<text text-anchor="middle" x="131" y="-177.3" font-family="Times,serif" font-size="14.00">serverSocket=Disconnected</text>
<text text-anchor="middle" x="131" y="-162.3" font-family="Times,serif" font-size="14.00">clientSocket=Connected</text>
<text text-anchor="middle" x="131" y="-147.3" font-family="Times,serif" font-size="14.00">phase=ServerReceive</text>
</g>
<!-- &#45;1271977344&#45;&gt;1359030673 -->
<g id="edge11" class="edge"><title>&#45;1271977344&#45;&gt;1359030673</title>
<path fill="none" stroke="black" d="M108.941,-572.41C112.348,-508.305 119.646,-371.514 126,-256 126.752,-242.332 127.581,-227.484 128.344,-213.903"/>
<polygon fill="black" stroke="black" points="131.845,-213.986 128.913,-203.805 124.856,-213.592 131.845,-213.986"/>
<text text-anchor="middle" x="185.5" y="-354.3" font-family="Times,serif" font-size="14.00">ServerCloseConnection</text>
</g>
<!-- 1573171644 -->
<g id="node12" class="node"><title>1573171644</title>
<ellipse fill="none" stroke="black" cx="261" cy="-38" rx="105.039" ry="37.4533"/>
<text text-anchor="middle" x="261" y="-49.3" font-family="Times,serif" font-size="14.00">serverSocket=Closed</text>
<text text-anchor="middle" x="261" y="-34.3" font-family="Times,serif" font-size="14.00">clientSocket=Connected</text>
<text text-anchor="middle" x="261" y="-19.3" font-family="Times,serif" font-size="14.00">phase=ServerReceive</text>
</g>
<!-- 1359030673&#45;&gt;1573171644 -->
<g id="edge12" class="edge"><title>1359030673&#45;&gt;1573171644</title>
<path fill="none" stroke="black" d="M166.867,-130.236C182.639,-114.95 201.296,-96.8666 217.824,-80.8475"/>
<polygon fill="black" stroke="black" points="220.505,-83.1232 225.25,-73.6501 215.633,-78.0967 220.505,-83.1232"/>
<text text-anchor="middle" x="237.5" y="-98.3" font-family="Times,serif" font-size="14.00">ServerClose</text>
</g>
<!-- 2132885676 -->
<g id="node14" class="node"><title>2132885676</title>
<ellipse fill="none" stroke="black" cx="615" cy="-166" rx="118.192" ry="37.4533"/>
<text text-anchor="middle" x="615" y="-177.3" font-family="Times,serif" font-size="14.00">serverSocket=Disconnected</text>
<text text-anchor="middle" x="615" y="-162.3" font-family="Times,serif" font-size="14.00">clientSocket=Closed</text>
<text text-anchor="middle" x="615" y="-147.3" font-family="Times,serif" font-size="14.00">phase=Send</text>
</g>
<!-- &#45;1133540645&#45;&gt;2132885676 -->
<g id="edge14" class="edge"><title>&#45;1133540645&#45;&gt;2132885676</title>
<path fill="none" stroke="black" d="M705.382,-478.416C686.869,-414.629 648.724,-283.199 628.414,-213.219"/>
<polygon fill="black" stroke="black" points="631.7,-211.983 625.551,-203.355 624.977,-213.934 631.7,-211.983"/>
<text text-anchor="middle" x="737.5" y="-354.3" font-family="Times,serif" font-size="14.00">ServerCloseConnection</text>
</g>
<!-- &#45;748759141 -->
<g id="node15" class="node"><title>&#45;748759141</title>
<ellipse fill="none" stroke="black" cx="527" cy="-38" rx="93.0077" ry="37.4533"/>
<text text-anchor="middle" x="527" y="-49.3" font-family="Times,serif" font-size="14.00">serverSocket=Closed</text>
<text text-anchor="middle" x="527" y="-34.3" font-family="Times,serif" font-size="14.00">clientSocket=Closed</text>
<text text-anchor="middle" x="527" y="-19.3" font-family="Times,serif" font-size="14.00">phase=Send</text>
</g>
<!-- 2132885676&#45;&gt;&#45;748759141 -->
<g id="edge15" class="edge"><title>2132885676&#45;&gt;&#45;748759141</title>
<path fill="none" stroke="black" d="M590.018,-129.23C579.9,-114.743 568.12,-97.8764 557.502,-82.6726"/>
<polygon fill="black" stroke="black" points="560.335,-80.6172 551.74,-74.4228 554.596,-84.6254 560.335,-80.6172"/>
<text text-anchor="middle" x="610.5" y="-98.3" font-family="Times,serif" font-size="14.00">ServerClose</text>
</g>
<!-- &#45;2016058616&#45;&gt;1837051979 -->
<g id="edge17" class="edge"><title>&#45;2016058616&#45;&gt;1837051979</title>
<path fill="none" stroke="black" d="M300.846,-645.191C292.653,-656.394 287.857,-669.251 293,-682 294.797,-686.454 297.146,-690.749 299.855,-694.84"/>
<polygon fill="black" stroke="black" points="297.093,-696.99 305.861,-702.938 302.715,-692.821 297.093,-696.99"/>
<text text-anchor="middle" x="331.5" y="-670.3" font-family="Times,serif" font-size="14.00">ClientReceive</text>
</g>
<!-- 460673561 -->
<g id="node17" class="node"><title>460673561</title>
<ellipse fill="none" stroke="black" cx="323" cy="-422" rx="118.192" ry="37.4533"/>
<text text-anchor="middle" x="323" y="-433.3" font-family="Times,serif" font-size="14.00">serverSocket=Disconnected</text>
<text text-anchor="middle" x="323" y="-418.3" font-family="Times,serif" font-size="14.00">clientSocket=Connected</text>
<text text-anchor="middle" x="323" y="-403.3" font-family="Times,serif" font-size="14.00">phase=ClientReceive</text>
</g>
<!-- &#45;2016058616&#45;&gt;460673561 -->
<g id="edge18" class="edge"><title>&#45;2016058616&#45;&gt;460673561</title>
<path fill="none" stroke="black" d="M327.9,-572.626C326.292,-566.472 324.893,-560.101 324,-554 319.932,-526.211 319.556,-494.75 320.256,-469.625"/>
<polygon fill="black" stroke="black" points="323.754,-469.742 320.6,-459.628 316.758,-469.501 323.754,-469.742"/>
<text text-anchor="middle" x="388.5" y="-512.3" font-family="Times,serif" font-size="14.00">ServerCloseConnection</text>
</g>
<!-- 460673561&#45;&gt;&#45;1302709924 -->
<g id="edge19" class="edge"><title>460673561&#45;&gt;&#45;1302709924</title>
<path fill="none" stroke="black" d="M349.644,-385.144C359.611,-373.122 371.553,-360.194 384,-350 392.205,-343.28 401.344,-336.934 410.651,-331.106"/>
<polygon fill="black" stroke="black" points="412.49,-334.084 419.223,-325.904 408.858,-328.1 412.49,-334.084"/>
<text text-anchor="middle" x="422.5" y="-354.3" font-family="Times,serif" font-size="14.00">ClientReceive</text>
</g>
<!-- 2055462980 -->
<g id="node20" class="node"><title>2055462980</title>
<ellipse fill="none" stroke="black" cx="240" cy="-294" rx="105.039" ry="37.4533"/>
<text text-anchor="middle" x="240" y="-305.3" font-family="Times,serif" font-size="14.00">serverSocket=Closed</text>
<text text-anchor="middle" x="240" y="-290.3" font-family="Times,serif" font-size="14.00">clientSocket=Connected</text>
<text text-anchor="middle" x="240" y="-275.3" font-family="Times,serif" font-size="14.00">phase=ClientReceive</text>
</g>
<!-- 460673561&#45;&gt;2055462980 -->
<g id="edge25" class="edge"><title>460673561&#45;&gt;2055462980</title>
<path fill="none" stroke="black" d="M298.827,-385.261C294.535,-378.861 290.122,-372.242 286,-366 280.356,-357.451 274.372,-348.29 268.653,-339.485"/>
<polygon fill="black" stroke="black" points="271.422,-337.321 263.045,-330.834 265.548,-341.129 271.422,-337.321"/>
<text text-anchor="middle" x="319.5" y="-354.3" font-family="Times,serif" font-size="14.00">ServerClose</text>
</g>
<!-- &#45;1302709924&#45;&gt;1359030673 -->
<g id="edge20" class="edge"><title>&#45;1302709924&#45;&gt;1359030673</title>
<path fill="none" stroke="black" d="M398.751,-267.21C383.933,-263.114 368.576,-259.185 354,-256 301.313,-244.487 284.158,-257.814 234,-238 215.078,-230.526 196.214,-219.015 179.897,-207.423"/>
<polygon fill="black" stroke="black" points="181.751,-204.443 171.61,-201.374 177.624,-210.097 181.751,-204.443"/>
<text text-anchor="middle" x="264.5" y="-226.3" font-family="Times,serif" font-size="14.00">ClientSend</text>
</g>
<!-- &#45;1302709924&#45;&gt;2132885676 -->
<g id="edge21" class="edge"><title>&#45;1302709924&#45;&gt;2132885676</title>
<path fill="none" stroke="black" d="M518.695,-258.236C534.831,-242.95 553.919,-224.867 570.828,-208.848"/>
<polygon fill="black" stroke="black" points="573.572,-211.068 578.425,-201.65 568.758,-205.987 573.572,-211.068"/>
<text text-anchor="middle" x="589" y="-226.3" font-family="Times,serif" font-size="14.00">ClientClose</text>
</g>
<!-- 1005336007 -->
<g id="node19" class="node"><title>1005336007</title>
<ellipse fill="none" stroke="black" cx="373" cy="-166" rx="105.039" ry="37.4533"/>
<text text-anchor="middle" x="373" y="-177.3" font-family="Times,serif" font-size="14.00">serverSocket=Closed</text>
<text text-anchor="middle" x="373" y="-162.3" font-family="Times,serif" font-size="14.00">clientSocket=Connected</text>
<text text-anchor="middle" x="373" y="-147.3" font-family="Times,serif" font-size="14.00">phase=Send</text>
</g>
<!-- &#45;1302709924&#45;&gt;1005336007 -->
<g id="edge22" class="edge"><title>&#45;1302709924&#45;&gt;1005336007</title>
<path fill="none" stroke="black" d="M451.347,-257.567C438.586,-242.815 423.651,-225.55 410.263,-210.074"/>
<polygon fill="black" stroke="black" points="412.612,-207.44 403.423,-202.167 407.318,-212.02 412.612,-207.44"/>
<text text-anchor="middle" x="468.5" y="-226.3" font-family="Times,serif" font-size="14.00">ServerClose</text>
</g>
<!-- 1005336007&#45;&gt;1573171644 -->
<g id="edge23" class="edge"><title>1005336007&#45;&gt;1573171644</title>
<path fill="none" stroke="black" d="M341.802,-129.902C328.452,-114.883 312.746,-97.2138 298.748,-81.4661"/>
<polygon fill="black" stroke="black" points="301.291,-79.0586 292.031,-73.9098 296.059,-83.7092 301.291,-79.0586"/>
<text text-anchor="middle" x="354.5" y="-98.3" font-family="Times,serif" font-size="14.00">ClientSend</text>
</g>
<!-- 1005336007&#45;&gt;&#45;748759141 -->
<g id="edge24" class="edge"><title>1005336007&#45;&gt;&#45;748759141</title>
<path fill="none" stroke="black" d="M414.269,-131.234C434.178,-114.945 458.181,-95.3065 478.913,-78.3441"/>
<polygon fill="black" stroke="black" points="481.16,-81.028 486.683,-71.9867 476.727,-75.6103 481.16,-81.028"/>
<text text-anchor="middle" x="492" y="-98.3" font-family="Times,serif" font-size="14.00">ClientClose</text>
</g>
<!-- 2055462980&#45;&gt;1005336007 -->
<g id="edge26" class="edge"><title>2055462980&#45;&gt;1005336007</title>
<path fill="none" stroke="black" d="M276.343,-258.57C292.617,-243.152 311.948,-224.839 329.03,-208.656"/>
<polygon fill="black" stroke="black" points="331.849,-210.807 336.701,-201.388 327.034,-205.725 331.849,-210.807"/>
<text text-anchor="middle" x="353.5" y="-226.3" font-family="Times,serif" font-size="14.00">ClientReceive</text>
</g>
<!-- &#45;148618235&#45;&gt;600990470 -->
<g id="edge33" class="edge"><title>&#45;148618235&#45;&gt;600990470</title>
<path fill="none" stroke="black" d="M796.964,-1084.49C795.43,-1044.43 791.724,-978.322 783,-922 782.564,-919.182 782.059,-916.295 781.506,-913.391"/>
<polygon fill="black" stroke="black" points="784.921,-912.617 779.478,-903.528 778.064,-914.028 784.921,-912.617"/>
<text text-anchor="middle" x="828.5" y="-990.3" font-family="Times,serif" font-size="14.00">ServerClose</text>
</g>
<!-- &#45;148618235&#45;&gt;1357255742 -->
<g id="edge32" class="edge"><title>&#45;148618235&#45;&gt;1357255742</title>
<path fill="none" stroke="black" d="M749.181,-1089.89C737.543,-1082.24 725.241,-1073.96 714,-1066 700.132,-1056.19 685.398,-1045.2 671.845,-1034.87"/>
<polygon fill="black" stroke="black" points="673.643,-1031.84 663.577,-1028.53 669.385,-1037.39 673.643,-1031.84"/>
<text text-anchor="middle" x="749" y="-1054.3" font-family="Times,serif" font-size="14.00">ServerListen</text>
</g>
<!-- &#45;2141056950&#45;&gt;600990470 -->
<g id="edge37" class="edge"><title>&#45;2141056950&#45;&gt;600990470</title>
<path fill="none" stroke="black" d="M849.188,-1218.66C869.558,-1203.88 890.43,-1184.07 901,-1160 914.582,-1129.07 905.494,-1117.48 901,-1084 893.152,-1025.55 896.578,-1006.43 866,-956 854.658,-937.295 838.275,-920.074 822.244,-905.866"/>
<polygon fill="black" stroke="black" points="824.289,-903.009 814.426,-899.14 819.724,-908.315 824.289,-903.009"/>
<text text-anchor="middle" x="932.5" y="-1054.3" font-family="Times,serif" font-size="14.00">ServerClose</text>
</g>
<!-- &#45;2141056950&#45;&gt;&#45;148618235 -->
<g id="edge36" class="edge"><title>&#45;2141056950&#45;&gt;&#45;148618235</title>
<path fill="none" stroke="black" d="M796.584,-1212.22C796.793,-1199.02 797.032,-1183.95 797.254,-1170.01"/>
<polygon fill="black" stroke="black" points="800.76,-1169.67 797.419,-1159.61 793.761,-1169.55 800.76,-1169.67"/>
<text text-anchor="middle" x="829" y="-1182.3" font-family="Times,serif" font-size="14.00">ServerBind</text>
</g>
<!-- &#45;1252286384&#45;&gt;&#45;2141056950 -->
<g id="edge39" class="edge"><title>&#45;1252286384&#45;&gt;&#45;2141056950</title>
<path fill="none" stroke="black" d="M796,-1340.22C796,-1327.02 796,-1311.95 796,-1298.01"/>
<polygon fill="black" stroke="black" points="799.5,-1297.61 796,-1287.61 792.5,-1297.61 799.5,-1297.61"/>
<text text-anchor="middle" x="832.5" y="-1310.3" font-family="Times,serif" font-size="14.00">ServerSocket</text>
</g>
</g>
</svg>
